<svg xmlns="http://www.w3.org/2000/svg" width="512" height="512" viewBox="0 0 108 108">
  <defs>
    <linearGradient id="staffGradient" x1="54" y1="29.25" x2="54" y2="81" gradientUnits="userSpaceOnUse">
      <stop offset="0" stop-color="#F5C542" />
      <stop offset="1" stop-color="#D4961C" />
    </linearGradient>
  </defs>

  <!-- Opaque background to satisfy Play listing icon requirements. -->
  <rect x="0" y="0" width="108" height="108" fill="#1A1A1A" />

  <path d="M54,29.25 a2.25,2.25 0 0,1 2.25,2.25 v47.25 a2.25,2.25 0 0,1 -2.25,2.25 a2.25,2.25 0 0,1 -2.25,-2.25 v-47.25 a2.25,2.25 0 0,1 2.25,-2.25Z" fill="url(#staffGradient)" />

  <path d="M51.75,38.25 C45,33.75 33.75,33.75 29.25,38.25 C33.75,36 42.75,36 49.5,40.5Z" fill="#F5C542" fill-opacity="0.902" />
  <path d="M51.75,42.75 C47.25,39.375 38.25,39.375 33.75,42.75 C38.25,40.5 45,40.5 49.5,45Z" fill="#F5C542" fill-opacity="0.8" />

  <path d="M56.25,38.25 C63,33.75 74.25,33.75 78.75,38.25 C74.25,36 65.25,36 58.5,40.5Z" fill="#F5C542" fill-opacity="0.902" />
  <path d="M56.25,42.75 C60.75,39.375 69.75,39.375 74.25,42.75 C69.75,40.5 63,40.5 58.5,45Z" fill="#D4961C" fill-opacity="0.8" />

  <path d="M54,72 C42.75,67.5 40.5,60.75 47.25,56.25 C40.5,58.5 38.25,65.25 45,69.75 C38.25,63 42.75,51.75 51.75,49.5 C45,54 42.75,60.75 49.5,65.25" fill="none" stroke="#F5C542" stroke-width="2.8" stroke-linecap="round" />
  <path d="M56.25,72 C63.75,67.5 63.75,60.75 60.75,56.25 C63.75,58.5 69.75,65.25 63,69.75 C69.75,63 65.25,51.75 56.25,49.5 C63,54 65.25,60.75 58.5,65.25" fill="none" stroke="#D4961C" stroke-width="2.8" stroke-linecap="round" />

  <path d="M49.5,29.25 a4.5,4.5 0 1,0 9,0 a4.5,4.5 0 1,0 -9,0Z" fill="#F5C542" />
  <path d="M51.75,29.25 a2.25,2.25 0 1,0 4.5,0 a2.25,2.25 0 1,0 -4.5,0Z" fill="#FFF8E1" fill-opacity="0.698" />
</svg>
